<?xml version="1.0" standalone="no"?>
<!DOCTYPE svg PUBLIC "-//W3C//DTD SVG 20010904//EN"
 "http://www.w3.org/TR/2001/REC-SVG-20010904/DTD/svg10.dtd">
<svg version="1.0" xmlns="http://www.w3.org/2000/svg"
 width="396.000000pt" height="396.000000pt" viewBox="0 0 396.000000 396.000000"
 preserveAspectRatio="xMidYMid meet">
<metadata>
Created by potrace 1.14, written by Peter Selinger 2001-2017
</metadata>
<g transform="translate(0.000000,396.000000) scale(0.100000,-0.100000)"
fill="#000000" stroke="none">
<path d="M1865 3943 c-101 -52 -140 -152 -95 -245 11 -23 18 -43 16 -45 -2 -2
-16 -6 -32 -9 -318 -56 -605 -271 -768 -574 -86 -163 -142 -388 -145 -587 -1
-49 -3 -53 -28 -59 -98 -20 -154 -65 -155 -122 -2 -55 42 -119 115 -167 20
-13 25 -23 22 -43 -3 -15 -7 -43 -11 -62 -18 -107 -17 -151 4 -180 22 -29 22
-32 -2 -120 -9 -30 -18 -88 -21 -128 -2 -40 -7 -77 -10 -82 -3 -5 -1 -11 5
-15 6 -4 8 -10 6 -14 -6 -9 20 -140 35 -179 6 -15 11 -29 11 -32 2 -11 53 -87
84 -126 l34 -42 -23 -15 c-38 -25 -112 -61 -119 -59 -5 1 -8 -2 -8 -6 0 -4
-20 -16 -45 -27 -74 -30 -62 -51 120 -210 44 -39 84 -75 90 -82 26 -31 835
-665 873 -684 38 -19 47 -20 68 -8 20 10 30 10 57 -3 30 -14 35 -14 67 3 19
10 107 77 195 149 88 73 177 146 198 164 22 17 44 36 50 41 7 6 88 73 180 149
93 76 176 144 185 151 10 8 82 68 162 133 80 66 151 131 157 145 11 25 10 26
-85 75 -53 27 -98 54 -100 60 -2 7 7 22 21 36 29 29 107 145 134 201 53 106
61 280 19 446 l-14 56 30 18 c36 21 49 52 35 83 -7 15 -7 29 1 46 6 13 9 48 7
77 l-3 54 54 39 c46 34 54 44 63 88 9 40 8 56 -4 81 -15 31 -72 77 -97 77 -28
1 -45 25 -41 58 3 22 -1 38 -10 45 -8 7 -18 30 -21 52 -4 22 -10 54 -13 70 -3
17 -6 38 -7 48 0 9 -3 17 -7 17 -3 0 -6 8 -6 18 2 28 -49 174 -89 259 -80 167
-180 296 -344 443 -103 92 -347 211 -485 236 -41 7 -49 18 -35 44 21 40 17
132 -9 173 -44 71 -200 123 -266 90z"/>
</g>
</svg>
